<svg width="29" height="217" viewBox="0 0 29 217" fill="none" xmlns="http://www.w3.org/2000/svg">
<path d="M10.8902 16.149C10.8902 17.095 11.5382 17.867 12.3272 17.867C13.1282 17.867 13.7652 17.095 13.7652 16.149C13.7772 15.208 13.1352 14.429 12.3272 14.429C11.5272 14.429 10.8902 15.201 10.8902 16.149ZM16.2052 16.149C16.2052 17.095 16.8552 17.867 17.6432 17.867C18.4502 17.867 19.0812 17.095 19.0812 16.149C19.0942 15.208 18.4502 14.429 17.6432 14.429C16.8432 14.429 16.2052 15.201 16.2052 16.149Z" fill="#EBECF3" fill-opacity="0.25"/>
<path fill-rule="evenodd" clip-rule="evenodd" d="M16.192 0.330028C15.8244 0.114599 15.4061 0.0010376 14.98 0.0010376C14.5539 0.0010376 14.1356 0.114599 13.768 0.330028L2.19199 7.10003C1.82164 7.3184 1.5149 7.62991 1.30227 8.00359C1.08965 8.37726 0.978537 8.80009 0.979995 9.23003V22.773C0.979995 23.65 1.44199 24.461 2.19199 24.9L13.768 31.672C14.518 32.111 15.442 32.111 16.192 31.672L27.768 24.9C28.1382 24.6817 28.4448 24.3704 28.6575 23.9969C28.8701 23.6234 28.9813 23.2008 28.98 22.771V9.23003C28.98 8.35203 28.518 7.54003 27.768 7.10203L16.192 0.329028V0.330028ZM17.268 9.00003C18.4021 9.21113 19.502 9.57653 20.537 10.086C20.5406 10.0897 20.5433 10.0942 20.545 10.099C22.352 12.931 23.245 16.126 22.911 19.805C22.9106 19.8128 22.9085 19.8204 22.9049 19.8273C22.9013 19.8342 22.8962 19.8403 22.89 19.845C21.6936 20.7927 20.3391 21.5212 18.889 21.997C18.879 22.0005 18.868 22.0005 18.858 21.997C18.8477 21.9932 18.839 21.9862 18.833 21.977C18.5274 21.525 18.2544 21.0518 18.016 20.561C18.0108 20.5507 18.0089 20.5391 18.0105 20.5276C18.0122 20.5162 18.0172 20.5055 18.025 20.497C18.03 20.4918 18.0362 20.4877 18.043 20.485C18.475 20.312 18.893 20.1 19.292 19.852C19.2995 19.8473 19.3057 19.8408 19.31 19.833C19.3165 19.8213 19.3187 19.8076 19.3161 19.7945C19.3136 19.7813 19.3064 19.7695 19.296 19.761C19.2117 19.6936 19.129 19.6243 19.048 19.553C19.0407 19.547 19.0319 19.5431 19.0225 19.5419C19.0131 19.5406 19.0036 19.5421 18.995 19.546C16.408 20.821 13.573 20.821 10.955 19.546C10.945 19.542 10.937 19.541 10.928 19.542C10.9188 19.5432 10.9101 19.547 10.903 19.553C10.823 19.623 10.739 19.694 10.655 19.761C10.6485 19.7664 10.6434 19.7733 10.64 19.781C10.6341 19.7935 10.633 19.8078 10.637 19.821C10.6407 19.8335 10.6489 19.8442 10.66 19.851C11.06 20.098 11.477 20.31 11.908 20.486C11.9148 20.4887 11.9209 20.4928 11.926 20.498C11.9338 20.5063 11.9389 20.5168 11.9406 20.528C11.9424 20.5392 11.9408 20.5507 11.936 20.561C11.7 21.057 11.426 21.53 11.118 21.977C11.1121 21.9863 11.1033 21.9933 11.093 21.997C11.0833 22.0003 11.0727 22.0003 11.063 21.997C9.6149 21.5196 8.26223 20.7908 7.06699 19.844C7.05542 19.8338 7.04826 19.8194 7.04699 19.804C6.76699 16.624 7.337 13.401 9.41 10.098C9.4144 10.0891 9.42184 10.082 9.43099 10.078C10.4622 9.57164 11.5581 9.20926 12.688 9.00103C12.698 8.99903 12.708 9.00103 12.718 9.00503C12.728 9.01003 12.735 9.01803 12.74 9.02703C12.893 9.31503 13.03 9.61103 13.152 9.91503C14.3634 9.71891 15.5985 9.71891 16.81 9.91503C16.92 9.64203 17.075 9.29403 17.216 9.02703C17.2209 9.01758 17.2285 9.00989 17.238 9.00503C17.2473 9.00042 17.2578 8.99902 17.268 9.00103V9.00003Z" fill="#EBECF3" fill-opacity="0.25"/>
</svg>
