<svg width="88" height="92" viewBox="0 0 88 92" fill="none" xmlns="http://www.w3.org/2000/svg">
<g clip-path="url(#clip0_25_1243)">
<g clip-path="url(#clip1_25_1243)">
<g filter="url(#filter0_ddi_25_1243)">
<path d="M42.9331 28.9296C43.5933 28.5433 44.4068 28.5433 45.067 28.9296L55.2531 34.8885C55.9133 35.2747 56.3201 35.9885 56.3201 36.761V48.6788C56.3201 49.4513 55.9133 50.165 55.2531 50.5513L45.067 56.5102C44.4068 56.8964 43.5933 56.8964 42.9331 56.5102L32.747 50.5513C32.0868 50.165 31.6801 49.4513 31.6801 48.6788V36.761C31.6801 35.9885 32.0868 35.2747 32.747 34.8885L42.9331 28.9296Z" fill="url(#paint0_linear_25_1243)"/>
<path d="M43.1552 29.3093C43.6782 29.0033 44.3218 29.0033 44.8448 29.3093L55.0309 35.2681C55.5546 35.5746 55.88 36.1428 55.88 36.7609V48.6787C55.88 49.2968 55.5546 49.8651 55.0309 50.1715L44.8448 56.1303C44.3218 56.4363 43.6782 56.4363 43.1552 56.1303L32.9691 50.1715C32.4454 49.8651 32.12 49.2968 32.12 48.6787V36.7609C32.12 36.1428 32.4454 35.5746 32.9691 35.2681L43.1552 29.3093Z" stroke="url(#paint1_linear_25_1243)" stroke-width="0.88"/>
</g>
<path d="M38.808 48.8801V46.9617L43.12 43.2481C43.6597 42.767 44.088 42.374 44.4048 42.0689C44.7333 41.7521 44.968 41.4529 45.1088 41.1713C45.2496 40.8897 45.32 40.5846 45.32 40.2561C45.32 39.7516 45.1792 39.3468 44.8976 39.0417C44.6277 38.7249 44.2112 38.5665 43.648 38.5665C43.0027 38.5665 42.504 38.7425 42.152 39.0945C41.8 39.4348 41.624 40.0214 41.624 40.8545H38.984C38.984 39.9276 39.16 39.1297 39.512 38.4609C39.864 37.7804 40.3861 37.2582 41.0784 36.8945C41.7824 36.5308 42.6389 36.3489 43.648 36.3489C44.5867 36.3489 45.3787 36.519 46.024 36.8593C46.6693 37.1878 47.1504 37.6454 47.4672 38.2321C47.7957 38.8188 47.96 39.4934 47.96 40.2561C47.96 40.8193 47.8251 41.3473 47.5552 41.8401C47.2971 42.3329 46.9509 42.8022 46.5168 43.2481C46.0827 43.694 45.5957 44.1398 45.056 44.5857L42.5216 46.6977H48.136V48.8801H38.808Z" fill="#17171F"/>
</g>
</g>
<defs>
<filter id="filter0_ddi_25_1243" x="31.6801" y="28.6399" width="24.64" height="31.6799" filterUnits="userSpaceOnUse" color-interpolation-filters="sRGB">
<feFlood flood-opacity="0" result="BackgroundImageFix"/>
<feColorMatrix in="SourceAlpha" type="matrix" values="0 0 0 0 0 0 0 0 0 0 0 0 0 0 0 0 0 0 127 0" result="hardAlpha"/>
<feOffset dy="0.88"/>
<feComposite in2="hardAlpha" operator="out"/>
<feColorMatrix type="matrix" values="0 0 0 0 0 0 0 0 0 0 0 0 0 0 0 0 0 0 0.05 0"/>
<feBlend mode="normal" in2="BackgroundImageFix" result="effect1_dropShadow_25_1243"/>
<feColorMatrix in="SourceAlpha" type="matrix" values="0 0 0 0 0 0 0 0 0 0 0 0 0 0 0 0 0 0 127 0" result="hardAlpha"/>
<feOffset dy="0.44"/>
<feComposite in2="hardAlpha" operator="out"/>
<feColorMatrix type="matrix" values="0 0 0 0 1 0 0 0 0 1 0 0 0 0 1 0 0 0 0.05 0"/>
<feBlend mode="normal" in2="effect1_dropShadow_25_1243" result="effect2_dropShadow_25_1243"/>
<feBlend mode="normal" in="SourceGraphic" in2="effect2_dropShadow_25_1243" result="shape"/>
<feColorMatrix in="SourceAlpha" type="matrix" values="0 0 0 0 0 0 0 0 0 0 0 0 0 0 0 0 0 0 127 0" result="hardAlpha"/>
<feOffset dy="3.52"/>
<feGaussianBlur stdDeviation="15.84"/>
<feComposite in2="hardAlpha" operator="arithmetic" k2="-1" k3="1"/>
<feColorMatrix type="matrix" values="0 0 0 0 0 0 0 0 0 0 0 0 0 0 0 0 0 0 0.12 0"/>
<feBlend mode="normal" in2="shape" result="effect3_innerShadow_25_1243"/>
</filter>
<linearGradient id="paint0_linear_25_1243" x1="32.4461" y1="28.6399" x2="70.7939" y2="44.8694" gradientUnits="userSpaceOnUse">
<stop stop-color="#828282"/>
<stop offset="0.354167" stop-color="white"/>
<stop offset="0.4383" stop-color="#D2D2D2"/>
<stop offset="0.697917" stop-color="#EBEBEB"/>
<stop offset="1" stop-color="#D6D6D6"/>
</linearGradient>
<linearGradient id="paint1_linear_25_1243" x1="31.68" y1="28.6398" x2="56.9038" y2="29.6569" gradientUnits="userSpaceOnUse">
<stop stop-color="#E7E7E7"/>
<stop offset="1" stop-color="#898989"/>
</linearGradient>
<clipPath id="clip0_25_1243">
<rect width="88" height="91.52" fill="white" transform="translate(0 0.47998)"/>
</clipPath>
<clipPath id="clip1_25_1243">
<rect width="88" height="91.52" fill="white" transform="translate(0 0.47998)"/>
</clipPath>
</defs>
</svg>
