<svg width="20" height="14" viewBox="0 0 20 14" fill="none" xmlns="http://www.w3.org/2000/svg">
<path d="M9.22873 2.04242C9.32255 1.92874 9.44034 1.83721 9.57367 1.77437C9.70701 1.71154 9.85258 1.67896 9.99998 1.67896C10.1474 1.67896 10.2929 1.71154 10.4263 1.77437C10.5596 1.83721 10.6774 1.92874 10.7712 2.04242L18.15 10.9887C18.2706 11.135 18.3472 11.3125 18.3707 11.5007C18.3943 11.6888 18.3639 11.8798 18.283 12.0513C18.2022 12.2228 18.0743 12.3678 17.9141 12.4694C17.754 12.5709 17.5683 12.6249 17.3787 12.6249H2.62123C2.43162 12.6249 2.24592 12.5709 2.08581 12.4694C1.92569 12.3678 1.79775 12.2228 1.71691 12.0513C1.63606 11.8798 1.60565 11.6888 1.62921 11.5007C1.65277 11.3125 1.72934 11.135 1.84998 10.9887L9.22873 2.04242Z" fill="#17171F" fill-opacity="0.5" stroke="#0075FF" stroke-width="1.25"/>
</svg>
