<svg width="22" height="23" viewBox="0 0 22 23" fill="none" xmlns="http://www.w3.org/2000/svg">
<path d="M16.7836 4.59124H17.7709V5.57846C17.7709 5.84028 17.8749 6.09139 18.06 6.27653C18.2452 6.46167 18.4963 6.56568 18.7581 6.56568C19.02 6.56568 19.2711 6.46167 19.4562 6.27653C19.6414 6.09139 19.7454 5.84028 19.7454 5.57846V4.59124H20.7327C20.9945 4.59124 21.2456 4.48723 21.4308 4.30209C21.6159 4.11695 21.7199 3.86585 21.7199 3.60402C21.7199 3.34219 21.6159 3.09109 21.4308 2.90595C21.2456 2.72081 20.9945 2.6168 20.7327 2.6168H19.7454V1.62958C19.7454 1.36776 19.6414 1.11665 19.4562 0.931515C19.2711 0.746376 19.02 0.642366 18.7581 0.642366C18.4963 0.642366 18.2452 0.746376 18.06 0.931515C17.8749 1.11665 17.7709 1.36776 17.7709 1.62958V2.6168H16.7836C16.5217 2.6168 16.2706 2.72081 16.0855 2.90595C15.9003 3.09109 15.7963 3.34219 15.7963 3.60402C15.7963 3.86585 15.9003 4.11695 16.0855 4.30209C16.2706 4.48723 16.5217 4.59124 16.7836 4.59124ZM5.92358 6.56568V16.4369C5.92358 16.6987 6.0276 16.9498 6.21275 17.1349C6.3979 17.3201 6.64901 17.4241 6.91086 17.4241C7.1727 17.4241 7.42381 17.3201 7.60896 17.1349C7.79411 16.9498 7.89813 16.6987 7.89813 16.4369V6.56568C7.89813 6.30385 7.79411 6.05275 7.60896 5.86761C7.42381 5.68247 7.1727 5.57846 6.91086 5.57846C6.64901 5.57846 6.3979 5.68247 6.21275 5.86761C6.0276 6.05275 5.92358 6.30385 5.92358 6.56568ZM20.3378 8.54011C20.2107 8.56602 20.09 8.6167 19.9825 8.68927C19.875 8.76184 19.7829 8.85487 19.7114 8.96305C19.6399 9.07123 19.5904 9.19243 19.5657 9.31974C19.5411 9.44706 19.5417 9.57798 19.5677 9.70503C19.8558 11.1036 19.8025 12.551 19.4123 13.9246C19.0221 15.2982 18.3065 16.5575 17.3261 17.5957C16.3457 18.634 15.1295 19.4206 13.7804 19.8889C12.4314 20.3572 10.9894 20.4935 9.57649 20.286C7.68593 20.0084 5.93522 19.1288 4.58413 17.7776C3.23303 16.4265 2.35353 14.6758 2.07612 12.7853C1.7987 10.8948 2.13815 8.96522 3.0441 7.28288C3.95005 5.60055 5.37423 4.25507 7.10535 3.44607C8.83728 2.63766 10.7837 2.40917 12.6558 2.7945C12.9153 2.84113 13.1827 2.78412 13.4007 2.63574C13.6186 2.48735 13.7696 2.25942 13.8214 2.00089C13.8731 1.74237 13.8213 1.47388 13.6772 1.25309C13.5331 1.0323 13.3082 0.876829 13.0507 0.820065C12.3285 0.685865 11.5943 0.626646 10.8599 0.643353C9.25427 0.643507 7.66861 0.999658 6.21711 1.68616C4.76561 2.37267 3.48439 3.37245 2.4657 4.61353C1.447 5.85461 0.716175 7.30611 0.325829 8.86353C-0.064518 10.4209 -0.104671 12.0455 0.208261 13.6203C0.5213 15.1953 1.1798 16.6812 2.13633 17.971C3.09285 19.2609 4.32358 20.3225 5.73985 21.0794C7.15611 21.8363 8.72264 22.2697 10.3266 22.3483C11.9305 22.4268 13.5319 22.1487 15.0154 21.5339C17.3456 20.5694 19.2675 18.8239 20.4513 16.5971C21.635 14.3703 22.0068 11.8009 21.5027 9.32989C21.479 9.20111 21.4298 9.07834 21.3582 8.96872C21.2866 8.8591 21.1939 8.7648 21.0855 8.69132C20.9771 8.61783 20.8552 8.56662 20.7268 8.54067C20.5984 8.51471 20.4662 8.51452 20.3378 8.54011ZM9.87267 8.54011V9.52733C9.87703 10.2579 10.1513 10.9611 10.6427 11.5018C10.1513 12.0424 9.87703 12.7456 9.87267 13.4762V14.4614C9.87267 15.2469 10.1847 16.0002 10.7402 16.5557C11.2956 17.1111 12.049 17.4231 12.8345 17.4231H13.8218C14.6073 17.4231 15.3606 17.1111 15.9161 16.5557C16.4715 16.0002 16.7836 15.2469 16.7836 14.4614V13.4742C16.7793 12.7436 16.505 12.0404 16.0135 11.4998C16.505 10.9592 16.7792 10.256 16.7836 9.52536V8.53814C16.7833 7.75283 16.4712 6.99977 15.9157 6.44457C15.3603 5.88936 14.6071 5.57747 13.8218 5.57747H12.8345C12.049 5.57747 11.2956 5.8895 10.7402 6.44492C10.1847 7.00034 9.87267 7.75463 9.87267 8.54011ZM14.809 14.4614C14.809 14.7233 14.705 14.9744 14.5199 15.1595C14.3347 15.3447 14.0836 15.4487 13.8218 15.4487H12.8345C12.5727 15.4487 12.3215 15.3447 12.1364 15.1595C11.9512 14.9744 11.8472 14.7233 11.8472 14.4614V13.4742C11.8472 13.2124 11.9512 12.9613 12.1364 12.7762C12.3215 12.591 12.5727 12.487 12.8345 12.487H13.8218C14.0836 12.487 14.3347 12.591 14.5199 12.7762C14.705 12.9613 14.809 13.2124 14.809 13.4742V14.4614ZM14.809 8.53814V9.52536C14.809 9.78718 14.705 10.0383 14.5199 10.2234C14.3347 10.4086 14.0836 10.5126 13.8218 10.5126H12.8345C12.5727 10.5126 12.3215 10.4086 12.1364 10.2234C11.9512 10.0383 11.8472 9.78718 11.8472 9.52536V8.53814C11.8472 8.27631 11.9512 8.02521 12.1364 7.84007C12.3215 7.65493 12.5727 7.55092 12.8345 7.55092H13.8218C14.0836 7.55092 14.3347 7.65493 14.5199 7.84007C14.705 8.02521 14.809 8.27631 14.809 8.53814Z" fill="#EBECF3" fill-opacity="0.5"/>
</svg>
