<svg width="22" height="16" viewBox="0 0 22 16" fill="none" xmlns="http://www.w3.org/2000/svg">
<path d="M8.22885 4.54242C8.32267 4.42874 8.44046 4.33721 8.5738 4.27437C8.70713 4.21154 8.8527 4.17896 9.0001 4.17896C9.1475 4.17896 9.29307 4.21154 9.4264 4.27437C9.55973 4.33721 9.67753 4.42874 9.77135 4.54242L17.1501 13.4887C17.2707 13.635 17.3473 13.8125 17.3709 14.0007C17.3944 14.1888 17.364 14.3798 17.2832 14.5513C17.2023 14.7228 17.0744 14.8678 16.9143 14.9694C16.7542 15.0709 16.5685 15.1249 16.3788 15.1249H1.62135C1.43174 15.1249 1.24605 15.0709 1.08593 14.9694C0.925814 14.8678 0.797874 14.7228 0.71703 14.5513C0.636187 14.3798 0.605772 14.1888 0.629333 14.0007C0.652893 13.8125 0.729459 13.635 0.8501 13.4887L8.22885 4.54242Z" fill="#17171F" fill-opacity="0.5" stroke="url(#paint0_linear_25_1048)" stroke-width="1.25"/>
<defs>
<linearGradient id="paint0_linear_25_1048" x1="9.0001" y1="4.17896" x2="9.0001" y2="15.1249" gradientUnits="userSpaceOnUse">
<stop stop-color="#0075FF"/>
<stop offset="1" stop-color="#88BFFF"/>
</linearGradient>
</defs>
</svg>
