<svg width="29" height="217" viewBox="0 0 29 217" fill="none" xmlns="http://www.w3.org/2000/svg">
<path d="M13.3799 14.325C13.3798 14.2358 13.4036 14.1482 13.4488 14.0713C13.494 13.9944 13.5589 13.931 13.6368 13.8877C13.7148 13.8443 13.8029 13.8226 13.8921 13.8248C13.9812 13.8269 14.0682 13.8529 14.1439 13.9L16.8509 15.575C16.9233 15.6198 16.983 15.6824 17.0244 15.7568C17.0658 15.8312 17.0875 15.9149 17.0875 16C17.0875 16.0851 17.0658 16.1688 17.0244 16.2432C16.983 16.3176 16.9233 16.3802 16.8509 16.425L14.1419 18.1C14.0661 18.1469 13.9792 18.1726 13.8901 18.1746C13.801 18.1766 13.713 18.1548 13.6352 18.1113C13.5574 18.0679 13.4926 18.0044 13.4475 17.9275C13.4025 17.8506 13.3788 17.7631 13.3789 17.674V14.324L13.3799 14.325Z" fill="#EBECF3" fill-opacity="0.25"/>
<path fill-rule="evenodd" clip-rule="evenodd" d="M16.192 0.330028C15.8244 0.114599 15.4061 0.0010376 14.98 0.0010376C14.5539 0.0010376 14.1356 0.114599 13.768 0.330028L2.19199 7.10003C1.82164 7.3184 1.5149 7.62991 1.30227 8.00359C1.08965 8.37726 0.978537 8.80009 0.979995 9.23003V22.773C0.979995 23.65 1.44199 24.461 2.19199 24.9L13.768 31.672C14.518 32.111 15.442 32.111 16.192 31.672L27.768 24.9C28.1382 24.6817 28.4448 24.3704 28.6575 23.9969C28.8701 23.6234 28.9813 23.2008 28.98 22.771V9.23003C28.98 8.35203 28.518 7.54003 27.768 7.10203L16.192 0.329028V0.330028ZM15.032 10L14.838 10.001C13.886 10.005 12.934 10.023 11.982 10.056L11.812 10.063L11.553 10.073L11.383 10.08C10.273 10.133 9.21599 10.219 8.72899 10.358C8.38899 10.456 8.079 10.648 7.832 10.914C7.58083 11.185 7.4026 11.5153 7.31399 11.874C7.213 12.278 7.14199 12.817 7.09399 13.371L7.08399 13.481L7.06199 13.759L7.05399 13.87L7.05099 13.926L7.04399 14.036C7.00652 14.668 6.98518 15.3009 6.97999 15.934V16.066C6.98499 16.791 7.01299 17.516 7.06199 18.24L7.07799 18.463C7.128 19.073 7.20199 19.681 7.31299 20.126C7.403 20.489 7.58299 20.82 7.83099 21.086C8.07899 21.352 8.389 21.543 8.72799 21.641C9.21499 21.782 10.272 21.867 11.382 21.919L11.724 21.934L11.811 21.938L11.981 21.945C13.321 21.994 14.6 22 14.909 22H15.05C15.661 21.999 20.07 21.975 21.23 21.642C21.57 21.544 21.88 21.352 22.128 21.086C22.377 20.82 22.555 20.489 22.646 20.126C22.757 19.68 22.831 19.073 22.881 18.463L22.89 18.352L22.898 18.239C22.9474 17.507 22.9747 16.7737 22.98 16.04V15.96C22.9751 15.2628 22.9504 14.5659 22.906 13.87L22.898 13.76L22.876 13.482L22.866 13.371C22.818 12.817 22.747 12.28 22.646 11.874C22.5573 11.5154 22.379 11.1851 22.128 10.914C21.8846 10.6511 21.5747 10.459 21.231 10.358C20.108 10.035 15.943 10.003 15.121 10H15.031H15.032Z" fill="#EBECF3" fill-opacity="0.25"/>
</svg>
