<svg width="29" height="217" viewBox="0 0 29 217" fill="none" xmlns="http://www.w3.org/2000/svg">
<path fill-rule="evenodd" clip-rule="evenodd" d="M16.192 0.330028C15.8244 0.114599 15.4061 0.0010376 14.98 0.0010376C14.5539 0.0010376 14.1356 0.114599 13.768 0.330028L2.19199 7.10003C1.82164 7.3184 1.5149 7.62991 1.30227 8.00359C1.08965 8.37726 0.978537 8.80009 0.979995 9.23003V22.773C0.979995 23.65 1.44199 24.461 2.19199 24.9L13.768 31.672C14.518 32.111 15.442 32.111 16.192 31.672L27.768 24.9C28.1382 24.6817 28.4448 24.3704 28.6575 23.9969C28.8701 23.6234 28.9813 23.2008 28.98 22.771V9.23003C28.98 8.35203 28.518 7.54003 27.768 7.10203L16.192 0.329028V0.330028ZM22.98 10.661C22.5378 11.3578 21.9817 11.9754 21.335 12.488C21.345 12.641 21.345 12.794 21.345 12.948C21.345 17.618 18.046 22.999 12.015 22.999C10.2139 22.999 8.45631 22.4457 6.97999 21.414C7.24281 21.4453 7.50733 21.46 7.77199 21.458C9.30499 21.458 10.716 20.9 11.843 19.948C10.401 19.916 9.193 18.898 8.77699 17.498C8.97999 17.531 9.18299 17.553 9.39699 17.553C9.69099 17.553 9.98499 17.509 10.259 17.433C8.757 17.105 7.62899 15.683 7.62899 13.966V13.922C8.06599 14.184 8.57399 14.348 9.11199 14.37C8.22899 13.736 7.64999 12.653 7.64999 11.428C7.64999 10.772 7.812 10.17 8.09699 9.64503C9.71099 11.789 12.137 13.189 14.858 13.342C14.8054 13.0752 14.7783 12.804 14.777 12.532C14.777 10.586 16.239 9.00003 18.057 9.00003C19 9.00003 19.853 9.42703 20.452 10.116C21.1921 9.96104 21.8974 9.67158 22.533 9.26203C22.3006 10.0623 21.7894 10.7529 21.092 11.209C21.752 11.133 22.392 10.936 22.98 10.663V10.661Z" fill="#EBECF3" fill-opacity="0.25"/>
</svg>
