<svg width="168" height="16" viewBox="0 0 168 16" fill="none" xmlns="http://www.w3.org/2000/svg">
<path d="M8.60727 4.36347C8.70109 4.24979 8.81888 4.15825 8.95221 4.09542C9.08555 4.03258 9.23112 4 9.37852 4C9.52591 4 9.67149 4.03258 9.80482 4.09542C9.93815 4.15825 10.0559 4.24979 10.1498 4.36347L17.5285 13.3097C17.6492 13.456 17.7257 13.6336 17.7493 13.8217C17.7728 14.0099 17.7424 14.2008 17.6616 14.3723C17.5807 14.5438 17.4528 14.6888 17.2927 14.7904C17.1326 14.892 16.9469 14.9459 16.7573 14.946H1.99977C1.81016 14.9459 1.62446 14.892 1.46435 14.7904C1.30423 14.6888 1.17629 14.5438 1.09545 14.3723C1.0146 14.2008 0.98419 14.0099 1.00775 13.8217C1.03131 13.6336 1.10788 13.456 1.22852 13.3097L8.60727 4.36347Z" fill="#17171F" fill-opacity="0.5" stroke="url(#paint0_linear_25_1799)" stroke-width="1.25"/>
<defs>
<linearGradient id="paint0_linear_25_1799" x1="9.37852" y1="4" x2="9.37852" y2="14.946" gradientUnits="userSpaceOnUse">
<stop stop-color="#0075FF"/>
<stop offset="1" stop-color="#88BFFF"/>
</linearGradient>
</defs>
</svg>
