<svg width="160" height="51" viewBox="0 0 160 51" fill="none" xmlns="http://www.w3.org/2000/svg">
<mask id="path-1-inside-1_25_1008" fill="white">
<path d="M150.777 6.0031L143.968 6.70403C143.915 6.55961 143.774 6.53827 143.596 6.53315C143.082 6.51949 142.564 6.54595 142.052 6.55961C141.718 6.56899 141.271 6.55961 141.075 6.96145C141.065 6.98194 141.052 6.99474 141.039 7.00498L140.915 7.01779C140.878 7.00669 140.841 6.98791 140.816 6.97596C140.117 6.64769 139.388 6.83837 138.671 6.98279C138.426 7.0323 138.219 7.20676 137.953 7.26395C137.825 7.29143 137.718 7.32131 137.63 7.3563L134.984 7.62824C134.984 7.61014 134.981 7.59222 134.979 7.57429C134.951 7.30338 134.784 7.24602 134.508 7.28016C134.214 7.31618 133.916 7.32045 133.627 7.37508C132.943 7.50413 132.253 7.50584 131.567 7.54101C130.918 7.57344 130.276 7.74364 129.639 7.74705C128.879 7.75047 128.129 7.87525 127.374 7.91708C126.606 7.95975 125.829 8.12995 125.053 8.16153C124.414 8.18714 123.775 8.37526 123.129 8.24279C122.999 8.21633 122.798 8.25815 122.665 8.38721C122.013 9.01729 122.053 10.2285 122.753 10.7423C122.899 10.85 123.012 10.9731 123.09 11.115C123.029 11.3784 122.967 11.6416 122.905 11.9048C122.755 11.969 122.796 12.4511 122.385 12.7768C122.064 13.0306 121.827 12.9041 121.656 13.1366C121.52 13.3205 121.595 13.6402 121.747 14.271C121.877 14.8079 121.945 15.0796 122.127 15.2763C121.021 20.1488 120 25.0256 119.107 29.9254C117.914 36.4084 116.881 42.6418 116.014 48.5666C115.936 49.1368 116.18 49.5292 116.608 49.6847C116.8 49.878 117.603 50.096 118.365 49.955C118.981 49.8413 119.222 49.5582 119.924 49.5736C120.333 49.583 120.411 49.6822 120.653 49.6182C120.83 49.571 120.993 49.4633 121.133 49.3257L122.181 49.212C122.197 49.2385 122.211 49.2643 122.229 49.2907C122.312 49.4155 122.427 49.5019 122.599 49.4925C123.433 49.4488 124.265 49.3437 125.095 49.224C125.239 49.1805 125.384 49.1308 125.535 49.1617C125.865 49.1214 126.197 49.0813 126.529 49.0412C126.555 49.0343 126.581 49.0265 126.607 49.0188C126.647 49.0077 126.686 48.9966 126.725 48.9864C126.736 48.983 126.749 48.9838 126.761 48.983C126.759 48.9889 126.756 48.9949 126.753 49.0009C126.975 48.9736 127.199 48.9454 127.421 48.9179C127.419 48.9137 127.415 48.9094 127.411 48.9051C127.421 48.9068 127.431 48.9094 127.44 48.9111C127.786 48.8761 128.133 48.8385 128.48 48.8061C129.233 48.7351 129.989 48.6803 130.742 48.5898C131.068 48.5504 131.194 48.5529 131.268 48.7044C131.888 48.6581 132.506 48.6205 133.126 48.5881C133.176 48.5171 133.278 48.4667 133.377 48.4401C133.655 48.365 133.942 48.2863 134.224 48.2692C135.241 48.2085 136.249 48.0478 137.259 47.9162C138.104 47.8068 138.95 47.758 139.795 47.6562C140.31 47.5948 140.833 47.5374 141.354 47.4981C142.063 47.4444 142.772 47.3151 143.48 47.2691C144.123 47.2272 144.202 47.2177 144.103 46.8049C144.728 46.6338 145.066 46.216 145.151 45.5884L146.185 37.9762C146.275 37.312 145.783 36.8017 145.029 36.8461L128.189 38.319L128.285 37.8258C128.179 37.6761 128.131 37.4223 128.152 37.1539C128.204 36.5059 127.927 35.7049 128.511 35.2852C128.615 35.2101 128.72 35.1501 128.825 35.1023L129.036 34.0337C129.128 33.8517 129.179 33.6542 129.179 33.4482C129.179 33.4106 129.177 33.3729 129.174 33.3362L129.184 33.2867L135.953 32.0463C135.952 32.1231 135.918 32.2257 135.854 32.3626C135.706 32.6788 135.848 32.99 136.156 32.9627C136.506 32.932 136.879 32.8959 137.191 32.7549C137.74 32.5079 138.253 32.1882 138.884 32.1745C139.055 32.1711 139.155 32.0566 139.282 31.9753C139.629 31.7505 139.956 31.4949 140.291 31.2522L143.182 30.7221C143.889 30.5615 144.323 30.1161 144.413 29.4519L145.267 23.1681C145.318 22.7904 145.161 22.4634 144.888 22.2592C144.505 21.9727 144.066 22.3799 144.001 22.8537L143.337 27.7419C143.32 27.8677 143.216 27.9638 143.089 27.9711C143.072 27.9721 143.059 27.957 143.062 27.9401L143.851 23.3393C143.964 22.6842 143.418 22.1037 142.757 22.1761L130.828 23.4817L131.948 18.4417L149.464 15.6694C150.227 15.5653 150.661 15.1191 150.821 14.3907L151.988 7.19054C152.086 6.46555 151.594 5.9553 150.777 6.0031ZM117.516 46.4188C117.383 46.4054 117.449 46.2639 117.582 46.2561L117.681 46.2502C117.716 46.2481 117.748 46.2699 117.76 46.3031C117.774 46.3449 117.752 46.3909 117.709 46.4012C117.642 46.4171 117.575 46.4248 117.516 46.4188ZM124.896 14.0276C124.875 14.1133 124.705 14.1628 124.688 14.0761C124.677 14.0196 124.764 14.018 124.822 14.0078C124.846 14.0036 124.861 13.996 124.884 14.0044C124.896 14.0088 124.899 14.0172 124.896 14.0276ZM136.185 39.636C136.218 39.6016 136.283 39.5928 136.299 39.6381C136.317 39.6902 136.246 39.7774 136.223 39.7577C136.199 39.7381 136.174 39.7191 136.149 39.7004C136.137 39.6912 136.159 39.6627 136.185 39.636ZM143.09 28.6423C143.108 28.5155 143.255 28.5235 143.343 28.6159L143.411 29.0313C143.406 29.069 143.377 29.1076 143.336 29.1612C143.278 29.2382 143.217 29.3134 143.151 29.3836C143.104 29.4331 143.056 29.4857 143.029 29.5148C143.016 29.5294 143 29.5382 142.98 29.5403C142.975 29.5409 142.969 29.5366 142.97 29.5315L143.09 28.6423ZM137.577 16.7901C136.764 17.269 135.862 17.2835 134.972 17.3612C134.67 17.3878 134.519 17.1355 134.554 16.8577C134.604 16.4533 134.328 15.9525 134.913 15.691C135.32 15.508 135.741 15.4559 136.097 15.4917C136.618 15.4687 137.025 15.5506 137.431 15.7242C137.655 15.8209 137.947 15.7712 137.928 16.1338C137.914 16.4081 137.884 16.6107 137.577 16.7901ZM147.283 8.54972C147.274 8.63349 147.182 8.72335 147.111 8.67792C147.049 8.63848 147.074 8.53535 147.136 8.49578C147.177 8.46934 147.221 8.46226 147.262 8.48895C147.281 8.50156 147.286 8.5244 147.283 8.54972Z"/>
</mask>
<path d="M150.777 6.0031L143.968 6.70403C143.915 6.55961 143.774 6.53827 143.596 6.53315C143.082 6.51949 142.564 6.54595 142.052 6.55961C141.718 6.56899 141.271 6.55961 141.075 6.96145C141.065 6.98194 141.052 6.99474 141.039 7.00498L140.915 7.01779C140.878 7.00669 140.841 6.98791 140.816 6.97596C140.117 6.64769 139.388 6.83837 138.671 6.98279C138.426 7.0323 138.219 7.20676 137.953 7.26395C137.825 7.29143 137.718 7.32131 137.63 7.3563L134.984 7.62824C134.984 7.61014 134.981 7.59222 134.979 7.57429C134.951 7.30338 134.784 7.24602 134.508 7.28016C134.214 7.31618 133.916 7.32045 133.627 7.37508C132.943 7.50413 132.253 7.50584 131.567 7.54101C130.918 7.57344 130.276 7.74364 129.639 7.74705C128.879 7.75047 128.129 7.87525 127.374 7.91708C126.606 7.95975 125.829 8.12995 125.053 8.16153C124.414 8.18714 123.775 8.37526 123.129 8.24279C122.999 8.21633 122.798 8.25815 122.665 8.38721C122.013 9.01729 122.053 10.2285 122.753 10.7423C122.899 10.85 123.012 10.9731 123.09 11.115C123.029 11.3784 122.967 11.6416 122.905 11.9048C122.755 11.969 122.796 12.4511 122.385 12.7768C122.064 13.0306 121.827 12.9041 121.656 13.1366C121.52 13.3205 121.595 13.6402 121.747 14.271C121.877 14.8079 121.945 15.0796 122.127 15.2763C121.021 20.1488 120 25.0256 119.107 29.9254C117.914 36.4084 116.881 42.6418 116.014 48.5666C115.936 49.1368 116.18 49.5292 116.608 49.6847C116.8 49.878 117.603 50.096 118.365 49.955C118.981 49.8413 119.222 49.5582 119.924 49.5736C120.333 49.583 120.411 49.6822 120.653 49.6182C120.83 49.571 120.993 49.4633 121.133 49.3257L122.181 49.212C122.197 49.2385 122.211 49.2643 122.229 49.2907C122.312 49.4155 122.427 49.5019 122.599 49.4925C123.433 49.4488 124.265 49.3437 125.095 49.224C125.239 49.1805 125.384 49.1308 125.535 49.1617C125.865 49.1214 126.197 49.0813 126.529 49.0412C126.555 49.0343 126.581 49.0265 126.607 49.0188C126.647 49.0077 126.686 48.9966 126.725 48.9864C126.736 48.983 126.749 48.9838 126.761 48.983C126.759 48.9889 126.756 48.9949 126.753 49.0009C126.975 48.9736 127.199 48.9454 127.421 48.9179C127.419 48.9137 127.415 48.9094 127.411 48.9051C127.421 48.9068 127.431 48.9094 127.44 48.9111C127.786 48.8761 128.133 48.8385 128.48 48.8061C129.233 48.7351 129.989 48.6803 130.742 48.5898C131.068 48.5504 131.194 48.5529 131.268 48.7044C131.888 48.6581 132.506 48.6205 133.126 48.5881C133.176 48.5171 133.278 48.4667 133.377 48.4401C133.655 48.365 133.942 48.2863 134.224 48.2692C135.241 48.2085 136.249 48.0478 137.259 47.9162C138.104 47.8068 138.95 47.758 139.795 47.6562C140.31 47.5948 140.833 47.5374 141.354 47.4981C142.063 47.4444 142.772 47.3151 143.48 47.2691C144.123 47.2272 144.202 47.2177 144.103 46.8049C144.728 46.6338 145.066 46.216 145.151 45.5884L146.185 37.9762C146.275 37.312 145.783 36.8017 145.029 36.8461L128.189 38.319L128.285 37.8258C128.179 37.6761 128.131 37.4223 128.152 37.1539C128.204 36.5059 127.927 35.7049 128.511 35.2852C128.615 35.2101 128.72 35.1501 128.825 35.1023L129.036 34.0337C129.128 33.8517 129.179 33.6542 129.179 33.4482C129.179 33.4106 129.177 33.3729 129.174 33.3362L129.184 33.2867L135.953 32.0463C135.952 32.1231 135.918 32.2257 135.854 32.3626C135.706 32.6788 135.848 32.99 136.156 32.9627C136.506 32.932 136.879 32.8959 137.191 32.7549C137.74 32.5079 138.253 32.1882 138.884 32.1745C139.055 32.1711 139.155 32.0566 139.282 31.9753C139.629 31.7505 139.956 31.4949 140.291 31.2522L143.182 30.7221C143.889 30.5615 144.323 30.1161 144.413 29.4519L145.267 23.1681C145.318 22.7904 145.161 22.4634 144.888 22.2592C144.505 21.9727 144.066 22.3799 144.001 22.8537L143.337 27.7419C143.32 27.8677 143.216 27.9638 143.089 27.9711C143.072 27.9721 143.059 27.957 143.062 27.9401L143.851 23.3393C143.964 22.6842 143.418 22.1037 142.757 22.1761L130.828 23.4817L131.948 18.4417L149.464 15.6694C150.227 15.5653 150.661 15.1191 150.821 14.3907L151.988 7.19054C152.086 6.46555 151.594 5.9553 150.777 6.0031ZM117.516 46.4188C117.383 46.4054 117.449 46.2639 117.582 46.2561L117.681 46.2502C117.716 46.2481 117.748 46.2699 117.76 46.3031C117.774 46.3449 117.752 46.3909 117.709 46.4012C117.642 46.4171 117.575 46.4248 117.516 46.4188ZM124.896 14.0276C124.875 14.1133 124.705 14.1628 124.688 14.0761C124.677 14.0196 124.764 14.018 124.822 14.0078C124.846 14.0036 124.861 13.996 124.884 14.0044C124.896 14.0088 124.899 14.0172 124.896 14.0276ZM136.185 39.636C136.218 39.6016 136.283 39.5928 136.299 39.6381C136.317 39.6902 136.246 39.7774 136.223 39.7577C136.199 39.7381 136.174 39.7191 136.149 39.7004C136.137 39.6912 136.159 39.6627 136.185 39.636ZM143.09 28.6423C143.108 28.5155 143.255 28.5235 143.343 28.6159L143.411 29.0313C143.406 29.069 143.377 29.1076 143.336 29.1612C143.278 29.2382 143.217 29.3134 143.151 29.3836C143.104 29.4331 143.056 29.4857 143.029 29.5148C143.016 29.5294 143 29.5382 142.98 29.5403C142.975 29.5409 142.969 29.5366 142.97 29.5315L143.09 28.6423ZM137.577 16.7901C136.764 17.269 135.862 17.2835 134.972 17.3612C134.67 17.3878 134.519 17.1355 134.554 16.8577C134.604 16.4533 134.328 15.9525 134.913 15.691C135.32 15.508 135.741 15.4559 136.097 15.4917C136.618 15.4687 137.025 15.5506 137.431 15.7242C137.655 15.8209 137.947 15.7712 137.928 16.1338C137.914 16.4081 137.884 16.6107 137.577 16.7901ZM147.283 8.54972C147.274 8.63349 147.182 8.72335 147.111 8.67792C147.049 8.63848 147.074 8.53535 147.136 8.49578C147.177 8.46934 147.221 8.46226 147.262 8.48895C147.281 8.50156 147.286 8.5244 147.283 8.54972Z" fill="url(#paint0_linear_25_1008)" stroke="url(#paint1_linear_25_1008)" mask="url(#path-1-inside-1_25_1008)"/>
<defs>
<linearGradient id="paint0_linear_25_1008" x1="134" y1="6" x2="134" y2="50" gradientUnits="userSpaceOnUse">
<stop stop-color="#0668FA"/>
<stop offset="1" stop-color="#5E9EFF"/>
</linearGradient>
<linearGradient id="paint1_linear_25_1008" x1="134" y1="6" x2="134" y2="50" gradientUnits="userSpaceOnUse">
<stop stop-color="#5E9EFF"/>
<stop offset="1" stop-color="#0668FA"/>
</linearGradient>
</defs>
</svg>
