<svg width="96" height="104" viewBox="0 0 96 104" fill="none" xmlns="http://www.w3.org/2000/svg">
<g clip-path="url(#clip0_25_1088)">
<g clip-path="url(#clip1_25_1088)">
<g clip-path="url(#clip2_25_1088)">
<path fill-rule="evenodd" clip-rule="evenodd" d="M59.0765 103.384C63.0922 97.9977 63.4623 92.1793 60.1866 85.9296C59.2757 89.2825 57.6094 91.3174 55.1876 92.0346C57.4365 86.2086 55.5573 79.9143 49.5498 73.1517C49.4201 80.1362 47.5697 85.2241 43.9985 88.4154C39.0788 92.8075 39.1366 97.7645 44.1719 103.285C23.2695 93.1955 20.3205 79.6626 35.3248 62.6874C36.2554 66.7882 38.5104 69.306 42.0904 70.2406C38.1882 55.2201 42.2939 42.4216 54.4071 31.8451C54.4816 55.3167 62.4164 57.4029 72.4486 67.8801C83.2804 80.4533 76.9149 94.963 59.0765 103.384Z" fill="url(#paint0_linear_25_1088)" fill-opacity="0.2"/>
<g opacity="0.15" filter="url(#filter0_f_25_1088)">
<path d="M59.1927 80.0959C58.9266 79.6372 58.9728 79.0497 59.3478 78.6748C59.7747 78.2479 59.7747 77.5559 59.3477 77.1291L58.6605 76.4418C58.2662 76.0474 57.6268 76.0474 57.2325 76.4418C56.8688 76.8054 56.2927 76.8331 55.8654 76.5469C54.7561 75.8037 53.5008 75.2622 52.1524 74.975C51.7049 74.8797 51.3655 74.4968 51.3655 74.0394C51.3655 73.5343 50.9562 73.125 50.4512 73.125H49.3862C48.8812 73.125 48.4719 73.5343 48.4719 74.0393C48.4719 74.4968 48.1323 74.8798 47.6848 74.975C42.8466 76.0055 39.2062 80.3116 39.2062 85.4526C39.2062 91.3594 44.0118 96.165 49.9187 96.165C55.8256 96.165 60.6312 91.3594 60.6312 85.4526C60.6313 83.5024 60.1071 81.6726 59.1927 80.0959ZM49.9187 93.7856C45.3239 93.7856 41.5856 90.0474 41.5856 85.4526C41.5856 80.8576 45.3239 77.1195 49.9187 77.1195C54.5136 77.1195 58.2518 80.8576 58.2518 85.4526C58.2518 90.0474 54.5136 93.7856 49.9187 93.7856Z" fill="#0075FF"/>
<path d="M56.145 84.6502C56.5235 84.6502 56.8198 84.3192 56.7384 83.9496C56.1417 81.2403 53.9676 79.1163 51.2318 78.5937C50.8924 78.5288 50.5937 78.8014 50.5937 79.1469C50.5937 79.4703 50.3316 79.7325 50.0082 79.7325H49.8293C49.5059 79.7325 49.2438 79.4703 49.2438 79.1469C49.2438 78.8014 48.9451 78.5288 48.6057 78.5937C45.8699 79.1163 43.6957 81.2403 43.0991 83.9496C43.0177 84.3192 43.314 84.6502 43.6925 84.6502C44.0424 84.6502 44.326 84.9338 44.326 85.2837V85.3424C44.326 85.7057 44.0314 86.0002 43.6682 86.0002C43.2848 86.0002 42.9798 86.3281 43.0484 86.7053C43.5624 89.5314 45.7831 91.7697 48.5998 92.3104C48.9423 92.3761 49.2438 92.1011 49.2438 91.7522C49.2438 91.4258 49.5083 91.1613 49.8347 91.1613H50.0027C50.3291 91.1613 50.5937 91.4258 50.5937 91.7522C50.5937 92.1011 50.8951 92.3761 51.2377 92.3104C54.0545 91.7697 56.2751 89.5314 56.7891 86.7053C56.8577 86.3281 56.5528 86.0002 56.1693 86.0002C55.806 86.0002 55.5115 85.7057 55.5115 85.3424V85.2837C55.5115 84.9338 55.7952 84.6502 56.145 84.6502ZM52.2366 84.1683C52.2366 84.1911 52.218 84.2096 52.1953 84.2096H50.9278C50.9049 84.2096 50.8865 84.1912 50.8865 84.1684C50.8865 83.8374 50.6173 83.5682 50.2863 83.5682H49.5511C49.2201 83.5682 48.951 83.8374 48.951 84.1684V84.1864C48.951 84.5174 49.2201 84.7866 49.5511 84.7866H50.2863C51.3617 84.7866 52.2366 85.6614 52.2366 86.7367C52.2366 87.5292 51.7614 88.2126 51.081 88.5174C50.813 88.6374 50.5937 88.8787 50.5937 89.1723C50.5937 89.5022 50.3264 89.7696 49.9964 89.7696H49.8411C49.5112 89.7696 49.2438 89.5022 49.2438 89.1723C49.2438 88.8787 49.0245 88.6374 48.7565 88.5174C48.0761 88.2126 47.6009 87.5293 47.6009 86.7367C47.6009 86.707 47.6251 86.6828 47.655 86.6828H48.8969C48.9268 86.6828 48.951 86.707 48.951 86.7367C48.951 87.0677 49.2201 87.3369 49.5511 87.3369H50.2863C50.6173 87.3369 50.8865 87.0677 50.8865 86.7367C50.8865 86.4058 50.6173 86.1366 50.2863 86.1366H49.5511C48.4758 86.1366 47.6009 85.2618 47.6009 84.1864V84.1684C47.6009 83.376 48.0761 82.6925 48.7565 82.3878C49.0245 82.2677 49.2438 82.0266 49.2438 81.7329C49.2438 81.403 49.5112 81.1356 49.8411 81.1356H49.9964C50.3264 81.1356 50.5937 81.403 50.5937 81.7329C50.5937 82.0266 50.813 82.2677 51.081 82.3878C51.7614 82.6925 52.2366 83.376 52.2366 84.1683Z" fill="#0075FF"/>
</g>
<path d="M59.1927 80.0959C58.9266 79.6372 58.9728 79.0497 59.3478 78.6748C59.7747 78.2479 59.7747 77.5559 59.3477 77.1291L58.6605 76.4418C58.2662 76.0474 57.6268 76.0474 57.2325 76.4418C56.8688 76.8054 56.2927 76.8331 55.8654 76.5469C54.7561 75.8037 53.5008 75.2622 52.1524 74.975C51.7049 74.8797 51.3655 74.4968 51.3655 74.0394C51.3655 73.5343 50.9562 73.125 50.4512 73.125H49.3862C48.8812 73.125 48.4719 73.5343 48.4719 74.0393C48.4719 74.4968 48.1323 74.8798 47.6848 74.975C42.8466 76.0055 39.2062 80.3116 39.2062 85.4526C39.2062 91.3594 44.0118 96.165 49.9187 96.165C55.8256 96.165 60.6312 91.3594 60.6312 85.4526C60.6313 83.5024 60.1071 81.6726 59.1927 80.0959ZM49.9187 93.7856C45.3239 93.7856 41.5856 90.0474 41.5856 85.4526C41.5856 80.8576 45.3239 77.1195 49.9187 77.1195C54.5136 77.1195 58.2518 80.8576 58.2518 85.4526C58.2518 90.0474 54.5136 93.7856 49.9187 93.7856Z" fill="#0075FF"/>
<path d="M56.145 84.6502C56.5235 84.6502 56.8198 84.3192 56.7384 83.9496C56.1417 81.2403 53.9676 79.1163 51.2318 78.5937C50.8924 78.5288 50.5937 78.8014 50.5937 79.1469C50.5937 79.4703 50.3316 79.7325 50.0082 79.7325H49.8293C49.5059 79.7325 49.2438 79.4703 49.2438 79.1469C49.2438 78.8014 48.9451 78.5288 48.6057 78.5937C45.8699 79.1163 43.6957 81.2403 43.0991 83.9496C43.0177 84.3192 43.314 84.6502 43.6925 84.6502C44.0424 84.6502 44.326 84.9338 44.326 85.2837V85.3424C44.326 85.7057 44.0314 86.0002 43.6682 86.0002C43.2848 86.0002 42.9798 86.3281 43.0484 86.7053C43.5624 89.5314 45.7831 91.7697 48.5998 92.3104C48.9423 92.3761 49.2438 92.1011 49.2438 91.7522C49.2438 91.4258 49.5083 91.1613 49.8347 91.1613H50.0027C50.3291 91.1613 50.5937 91.4258 50.5937 91.7522C50.5937 92.1011 50.8951 92.3761 51.2377 92.3104C54.0545 91.7697 56.2751 89.5314 56.7891 86.7053C56.8577 86.3281 56.5528 86.0002 56.1693 86.0002C55.806 86.0002 55.5115 85.7057 55.5115 85.3424V85.2837C55.5115 84.9338 55.7952 84.6502 56.145 84.6502ZM52.2366 84.1683C52.2366 84.1911 52.218 84.2096 52.1953 84.2096H50.9278C50.9049 84.2096 50.8865 84.1912 50.8865 84.1684C50.8865 83.8374 50.6173 83.5682 50.2863 83.5682H49.5511C49.2201 83.5682 48.951 83.8374 48.951 84.1684V84.1864C48.951 84.5174 49.2201 84.7866 49.5511 84.7866H50.2863C51.3617 84.7866 52.2366 85.6614 52.2366 86.7367C52.2366 87.5292 51.7614 88.2126 51.081 88.5174C50.813 88.6374 50.5937 88.8787 50.5937 89.1723C50.5937 89.5022 50.3264 89.7696 49.9964 89.7696H49.8411C49.5112 89.7696 49.2438 89.5022 49.2438 89.1723C49.2438 88.8787 49.0245 88.6374 48.7565 88.5174C48.0761 88.2126 47.6009 87.5293 47.6009 86.7367C47.6009 86.707 47.6251 86.6828 47.655 86.6828H48.8969C48.9268 86.6828 48.951 86.707 48.951 86.7367C48.951 87.0677 49.2201 87.3369 49.5511 87.3369H50.2863C50.6173 87.3369 50.8865 87.0677 50.8865 86.7367C50.8865 86.4058 50.6173 86.1366 50.2863 86.1366H49.5511C48.4758 86.1366 47.6009 85.2618 47.6009 84.1864V84.1684C47.6009 83.376 48.0761 82.6925 48.7565 82.3878C49.0245 82.2677 49.2438 82.0266 49.2438 81.7329C49.2438 81.403 49.5112 81.1356 49.8411 81.1356H49.9964C50.3264 81.1356 50.5937 81.403 50.5937 81.7329C50.5937 82.0266 50.813 82.2677 51.081 82.3878C51.7614 82.6925 52.2366 83.376 52.2366 84.1683Z" fill="#0075FF"/>
</g>
</g>
</g>
<defs>
<filter id="filter0_f_25_1088" x="29.2062" y="63.125" width="41.425" height="43.04" filterUnits="userSpaceOnUse" color-interpolation-filters="sRGB">
<feFlood flood-opacity="0" result="BackgroundImageFix"/>
<feBlend mode="normal" in="SourceGraphic" in2="BackgroundImageFix" result="shape"/>
<feGaussianBlur stdDeviation="5" result="effect1_foregroundBlur_25_1088"/>
</filter>
<linearGradient id="paint0_linear_25_1088" x1="33.2653" y1="-39.7055" x2="33.2653" y2="99.4809" gradientUnits="userSpaceOnUse">
<stop stop-color="#77ADFF"/>
<stop offset="1" stop-color="#0066FF" stop-opacity="0"/>
</linearGradient>
<clipPath id="clip0_25_1088">
<rect width="96" height="103.67" fill="white" transform="translate(0 0.170044)"/>
</clipPath>
<clipPath id="clip1_25_1088">
<rect width="96" height="103.67" fill="white" transform="translate(0 0.170044)"/>
</clipPath>
<clipPath id="clip2_25_1088">
<rect width="96" height="103.68" fill="white" transform="translate(0 0.165039)"/>
</clipPath>
</defs>
</svg>
