<svg width="68" height="86" viewBox="0 0 68 86" fill="none" xmlns="http://www.w3.org/2000/svg">
<mask id="path-1-inside-1_26_759" fill="white">
<path d="M65.6898 0.115848L52.8279 1.46991C52.7274 1.19092 52.4629 1.1497 52.1249 1.13981C51.154 1.11342 50.1766 1.16454 49.2091 1.19092C48.578 1.20906 47.7344 1.19092 47.3645 1.96721C47.3443 2.00679 47.3208 2.03152 47.2956 2.05131L47.0613 2.07604C46.991 2.05461 46.9224 2.01833 46.874 1.99525C45.5548 1.36108 44.1773 1.72944 42.8233 2.00844C42.3596 2.10407 41.9695 2.44111 41.4674 2.55158C41.2247 2.60467 41.0222 2.66239 40.8565 2.72999L35.8582 3.25532C35.8582 3.22037 35.8532 3.18574 35.8499 3.15111C35.7962 2.62776 35.48 2.51695 34.9593 2.58291C34.4051 2.65249 33.841 2.66074 33.2954 2.76626C32.0031 3.01558 30.6992 3.01887 29.4039 3.08681C28.1785 3.14947 26.9667 3.47825 25.7632 3.48485C24.327 3.49145 22.9107 3.73251 21.4845 3.81331C20.0334 3.89575 18.5654 4.22454 17.1007 4.28555C15.8922 4.33501 14.6854 4.69843 13.4667 4.44252C13.2207 4.39141 12.8406 4.4722 12.5897 4.72151C11.3577 5.93872 11.4329 8.27849 12.7554 9.27112C13.0315 9.47921 13.2443 9.71697 13.3931 9.99102C13.2761 10.4999 13.1604 11.0084 13.0434 11.5169C12.7587 11.6409 12.8373 12.5722 12.0607 13.2014C11.4548 13.6918 11.0063 13.4474 10.6832 13.8966C10.4269 14.2517 10.5675 14.8694 10.8555 16.0879C11.1014 17.1251 11.2304 17.6501 11.5738 18.03C9.48463 27.4428 7.55624 36.8639 5.86916 46.3295C3.61595 58.8534 1.66436 70.8952 0.0273241 82.3408C-0.120172 83.4423 0.340217 84.2004 1.14863 84.5008C1.51024 84.8742 3.02696 85.2953 4.46811 85.0229C5.6315 84.8032 6.08659 84.2565 7.41239 84.2861C8.18401 84.3043 8.33117 84.4959 8.7899 84.3722C9.12301 84.2812 9.43093 84.0731 9.69543 83.8073L11.6759 83.5877C11.7057 83.6388 11.7325 83.6886 11.766 83.7397C11.9234 83.9808 12.1392 84.1476 12.4657 84.1295C14.0408 84.0451 15.6108 83.8419 17.1793 83.6108C17.4524 83.5267 17.7252 83.4307 18.0112 83.4904C18.634 83.4126 19.2601 83.3351 19.8879 83.2576C19.9363 83.2444 19.9867 83.2292 20.0351 83.2144C20.1103 83.1929 20.1839 83.1715 20.2578 83.1517C20.2793 83.1451 20.3029 83.1468 20.3264 83.1451C20.3231 83.1567 20.3178 83.1682 20.3112 83.1797C20.7314 83.127 21.153 83.0726 21.5733 83.0195C21.5683 83.0112 21.5617 83.003 21.5548 82.9947C21.5733 82.998 21.5919 83.003 21.6085 83.0063C22.2631 82.9387 22.9174 82.8661 23.5736 82.8035C24.9965 82.6663 26.4241 82.5604 27.8454 82.3856C28.4612 82.3095 28.7005 82.3144 28.8397 82.6069C30.0114 82.5176 31.1781 82.445 32.3498 82.3823C32.4436 82.2452 32.6358 82.1479 32.8234 82.0964C33.3475 81.9513 33.8897 81.7993 34.4237 81.7663C36.3435 81.6489 38.2483 81.3386 40.1568 81.0843C41.7518 80.8729 43.3503 80.7786 44.9456 80.5821C45.9181 80.4634 46.9075 80.3526 47.8916 80.2767C49.2306 80.1728 50.57 79.9232 51.9074 79.8342C53.1209 79.7534 53.2713 79.7349 53.0841 78.9375C54.264 78.6071 54.9017 77.7998 55.0625 76.5875L57.0161 61.8821C57.1868 60.5989 56.2577 59.6132 54.8331 59.699L23.0228 62.5443L23.2054 61.5916C23.0045 61.3023 22.914 60.812 22.9542 60.2936C23.0513 59.0417 22.5292 57.4944 23.6323 56.6835C23.8282 56.5384 24.0274 56.4226 24.2246 56.3303L24.623 54.2659C24.7973 53.9143 24.8945 53.5328 24.8945 53.1348C24.8945 53.0622 24.8892 52.9893 24.8842 52.9184L24.9028 52.8228L37.6895 50.4266C37.6878 50.575 37.6225 50.7732 37.5019 51.0377C37.2225 51.6485 37.4903 52.2496 38.0726 52.1969C38.7339 52.1375 39.4385 52.0679 40.0279 51.7955C41.064 51.3183 42.0331 50.7007 43.225 50.6743C43.5479 50.6677 43.7371 50.4464 43.9764 50.2894C44.6327 49.8551 45.2502 49.3615 45.883 48.8925L51.3433 47.8685C52.679 47.5582 53.499 46.6978 53.6697 45.4147L55.2819 33.2756C55.415 32.2766 54.8075 31.4612 53.9155 31.1871C53.4578 31.0464 53.0551 31.4352 52.992 31.9098L51.6354 42.1201C51.6038 42.358 51.4079 42.54 51.1684 42.5541C51.1363 42.556 51.1107 42.5276 51.116 42.4958L52.8129 32.387C52.9228 31.732 52.3755 31.1537 51.7154 31.2276L28.0078 33.8814L30.1234 24.145L63.2092 18.7895C64.6504 18.5883 65.4707 17.7263 65.7737 16.3191L67.9765 2.40978C68.1621 1.00921 67.2334 0.0235106 65.6898 0.115848ZM2.85614 78.1908C2.60655 78.1623 2.73504 77.8926 2.98581 77.8774L3.17203 77.8661C3.2403 77.862 3.30281 77.9047 3.32463 77.9695C3.35165 78.0498 3.30902 78.1379 3.22672 78.1579C3.09793 78.1891 2.96946 78.2038 2.85614 78.1908ZM16.8036 15.6195C16.7597 15.7811 16.4417 15.8759 16.411 15.7113C16.3906 15.6023 16.5541 15.5992 16.6639 15.5794C16.7089 15.5713 16.7381 15.5566 16.7809 15.5728C16.804 15.5816 16.8093 15.5985 16.8036 15.6195ZM38.1275 65.0886C38.19 65.0225 38.3134 65.0062 38.3421 65.0925C38.3757 65.1933 38.2433 65.3616 38.1983 65.3236C38.1532 65.2857 38.1061 65.2491 38.0594 65.2128C38.0366 65.1952 38.0785 65.1402 38.1275 65.0886ZM51.1709 43.8486C51.2028 43.6084 51.4823 43.6229 51.6479 43.7998L51.7768 44.6021C51.7673 44.6756 51.7106 44.7509 51.633 44.8562C51.5247 45.003 51.4103 45.1465 51.2866 45.2806C51.1977 45.3771 51.1055 45.4801 51.0552 45.5366C51.0304 45.5645 50.9994 45.5814 50.9623 45.5855C50.9526 45.5865 50.9412 45.5787 50.9424 45.5691L51.1709 43.8486ZM40.7561 20.9545C39.2211 21.8795 37.5171 21.9075 35.8363 22.0576C35.2656 22.109 34.9795 21.6216 35.0465 21.0851C35.1416 20.3038 34.6196 19.3362 35.7243 18.831C36.4926 18.4775 37.2878 18.3769 37.9606 18.4462C38.9447 18.4017 39.7146 18.5599 40.4813 18.8953C40.9032 19.082 41.4558 18.986 41.4203 19.6865C41.3938 20.2164 41.3368 20.6079 40.7561 20.9545ZM59.0893 5.03988C59.0697 5.19806 58.8985 5.37041 58.7651 5.28312C58.6488 5.20694 58.6957 5.0077 58.8119 4.93125C58.8895 4.88017 58.9725 4.8665 59.0499 4.91806C59.0875 4.94315 59.0955 4.98922 59.0893 5.03988Z"/>
</mask>
<path d="M65.6898 0.115848L52.8279 1.46991C52.7274 1.19092 52.4629 1.1497 52.1249 1.13981C51.154 1.11342 50.1766 1.16454 49.2091 1.19092C48.578 1.20906 47.7344 1.19092 47.3645 1.96721C47.3443 2.00679 47.3208 2.03152 47.2956 2.05131L47.0613 2.07604C46.991 2.05461 46.9224 2.01833 46.874 1.99525C45.5548 1.36108 44.1773 1.72944 42.8233 2.00844C42.3596 2.10407 41.9695 2.44111 41.4674 2.55158C41.2247 2.60467 41.0222 2.66239 40.8565 2.72999L35.8582 3.25532C35.8582 3.22037 35.8532 3.18574 35.8499 3.15111C35.7962 2.62776 35.48 2.51695 34.9593 2.58291C34.4051 2.65249 33.841 2.66074 33.2954 2.76626C32.0031 3.01558 30.6992 3.01887 29.4039 3.08681C28.1785 3.14947 26.9667 3.47825 25.7632 3.48485C24.327 3.49145 22.9107 3.73251 21.4845 3.81331C20.0334 3.89575 18.5654 4.22454 17.1007 4.28555C15.8922 4.33501 14.6854 4.69843 13.4667 4.44252C13.2207 4.39141 12.8406 4.4722 12.5897 4.72151C11.3577 5.93872 11.4329 8.27849 12.7554 9.27112C13.0315 9.47921 13.2443 9.71697 13.3931 9.99102C13.2761 10.4999 13.1604 11.0084 13.0434 11.5169C12.7587 11.6409 12.8373 12.5722 12.0607 13.2014C11.4548 13.6918 11.0063 13.4474 10.6832 13.8966C10.4269 14.2517 10.5675 14.8694 10.8555 16.0879C11.1014 17.1251 11.2304 17.6501 11.5738 18.03C9.48463 27.4428 7.55624 36.8639 5.86916 46.3295C3.61595 58.8534 1.66436 70.8952 0.0273241 82.3408C-0.120172 83.4423 0.340217 84.2004 1.14863 84.5008C1.51024 84.8742 3.02696 85.2953 4.46811 85.0229C5.6315 84.8032 6.08659 84.2565 7.41239 84.2861C8.18401 84.3043 8.33117 84.4959 8.7899 84.3722C9.12301 84.2812 9.43093 84.0731 9.69543 83.8073L11.6759 83.5877C11.7057 83.6388 11.7325 83.6886 11.766 83.7397C11.9234 83.9808 12.1392 84.1476 12.4657 84.1295C14.0408 84.0451 15.6108 83.8419 17.1793 83.6108C17.4524 83.5267 17.7252 83.4307 18.0112 83.4904C18.634 83.4126 19.2601 83.3351 19.8879 83.2576C19.9363 83.2444 19.9867 83.2292 20.0351 83.2144C20.1103 83.1929 20.1839 83.1715 20.2578 83.1517C20.2793 83.1451 20.3029 83.1468 20.3264 83.1451C20.3231 83.1567 20.3178 83.1682 20.3112 83.1797C20.7314 83.127 21.153 83.0726 21.5733 83.0195C21.5683 83.0112 21.5617 83.003 21.5548 82.9947C21.5733 82.998 21.5919 83.003 21.6085 83.0063C22.2631 82.9387 22.9174 82.8661 23.5736 82.8035C24.9965 82.6663 26.4241 82.5604 27.8454 82.3856C28.4612 82.3095 28.7005 82.3144 28.8397 82.6069C30.0114 82.5176 31.1781 82.445 32.3498 82.3823C32.4436 82.2452 32.6358 82.1479 32.8234 82.0964C33.3475 81.9513 33.8897 81.7993 34.4237 81.7663C36.3435 81.6489 38.2483 81.3386 40.1568 81.0843C41.7518 80.8729 43.3503 80.7786 44.9456 80.5821C45.9181 80.4634 46.9075 80.3526 47.8916 80.2767C49.2306 80.1728 50.57 79.9232 51.9074 79.8342C53.1209 79.7534 53.2713 79.7349 53.0841 78.9375C54.264 78.6071 54.9017 77.7998 55.0625 76.5875L57.0161 61.8821C57.1868 60.5989 56.2577 59.6132 54.8331 59.699L23.0228 62.5443L23.2054 61.5916C23.0045 61.3023 22.914 60.812 22.9542 60.2936C23.0513 59.0417 22.5292 57.4944 23.6323 56.6835C23.8282 56.5384 24.0274 56.4226 24.2246 56.3303L24.623 54.2659C24.7973 53.9143 24.8945 53.5328 24.8945 53.1348C24.8945 53.0622 24.8892 52.9893 24.8842 52.9184L24.9028 52.8228L37.6895 50.4266C37.6878 50.575 37.6225 50.7732 37.5019 51.0377C37.2225 51.6485 37.4903 52.2496 38.0726 52.1969C38.7339 52.1375 39.4385 52.0679 40.0279 51.7955C41.064 51.3183 42.0331 50.7007 43.225 50.6743C43.5479 50.6677 43.7371 50.4464 43.9764 50.2894C44.6327 49.8551 45.2502 49.3615 45.883 48.8925L51.3433 47.8685C52.679 47.5582 53.499 46.6978 53.6697 45.4147L55.2819 33.2756C55.415 32.2766 54.8075 31.4612 53.9155 31.1871C53.4578 31.0464 53.0551 31.4352 52.992 31.9098L51.6354 42.1201C51.6038 42.358 51.4079 42.54 51.1684 42.5541C51.1363 42.556 51.1107 42.5276 51.116 42.4958L52.8129 32.387C52.9228 31.732 52.3755 31.1537 51.7154 31.2276L28.0078 33.8814L30.1234 24.145L63.2092 18.7895C64.6504 18.5883 65.4707 17.7263 65.7737 16.3191L67.9765 2.40978C68.1621 1.00921 67.2334 0.0235106 65.6898 0.115848ZM2.85614 78.1908C2.60655 78.1623 2.73504 77.8926 2.98581 77.8774L3.17203 77.8661C3.2403 77.862 3.30281 77.9047 3.32463 77.9695C3.35165 78.0498 3.30902 78.1379 3.22672 78.1579C3.09793 78.1891 2.96946 78.2038 2.85614 78.1908ZM16.8036 15.6195C16.7597 15.7811 16.4417 15.8759 16.411 15.7113C16.3906 15.6023 16.5541 15.5992 16.6639 15.5794C16.7089 15.5713 16.7381 15.5566 16.7809 15.5728C16.804 15.5816 16.8093 15.5985 16.8036 15.6195ZM38.1275 65.0886C38.19 65.0225 38.3134 65.0062 38.3421 65.0925C38.3757 65.1933 38.2433 65.3616 38.1983 65.3236C38.1532 65.2857 38.1061 65.2491 38.0594 65.2128C38.0366 65.1952 38.0785 65.1402 38.1275 65.0886ZM51.1709 43.8486C51.2028 43.6084 51.4823 43.6229 51.6479 43.7998L51.7768 44.6021C51.7673 44.6756 51.7106 44.7509 51.633 44.8562C51.5247 45.003 51.4103 45.1465 51.2866 45.2806C51.1977 45.3771 51.1055 45.4801 51.0552 45.5366C51.0304 45.5645 50.9994 45.5814 50.9623 45.5855C50.9526 45.5865 50.9412 45.5787 50.9424 45.5691L51.1709 43.8486ZM40.7561 20.9545C39.2211 21.8795 37.5171 21.9075 35.8363 22.0576C35.2656 22.109 34.9795 21.6216 35.0465 21.0851C35.1416 20.3038 34.6196 19.3362 35.7243 18.831C36.4926 18.4775 37.2878 18.3769 37.9606 18.4462C38.9447 18.4017 39.7146 18.5599 40.4813 18.8953C40.9032 19.082 41.4558 18.986 41.4203 19.6865C41.3938 20.2164 41.3368 20.6079 40.7561 20.9545ZM59.0893 5.03988C59.0697 5.19806 58.8985 5.37041 58.7651 5.28312C58.6488 5.20694 58.6957 5.0077 58.8119 4.93125C58.8895 4.88017 58.9725 4.8665 59.0499 4.91806C59.0875 4.94315 59.0955 4.98922 59.0893 5.03988Z" fill="url(#paint0_linear_26_759)" stroke="url(#paint1_linear_26_759)" mask="url(#path-1-inside-1_26_759)"/>
<defs>
<linearGradient id="paint0_linear_26_759" x1="34" y1="0.109863" x2="34" y2="85.1099" gradientUnits="userSpaceOnUse">
<stop stop-color="#0668FA"/>
<stop offset="1" stop-color="#5E9EFF"/>
</linearGradient>
<linearGradient id="paint1_linear_26_759" x1="34" y1="0.109863" x2="34" y2="85.1099" gradientUnits="userSpaceOnUse">
<stop stop-color="#5E9EFF"/>
<stop offset="1" stop-color="#0668FA"/>
</linearGradient>
</defs>
</svg>
