<svg width="13" height="13" viewBox="0 0 13 13" fill="none" xmlns="http://www.w3.org/2000/svg">
<path d="M0.88699 9.375C0.764573 9.25767 0.667159 9.11679 0.60061 8.96083C0.534062 8.80487 0.499756 8.63706 0.499756 8.4675C0.499756 8.29794 0.534062 8.13013 0.60061 7.97417C0.667159 7.81821 0.764573 7.67733 0.88699 7.56L4.62949 3.93L5.99899 2.7C6.13662 2.57646 6.31504 2.50812 6.49999 2.50812C6.68494 2.50812 6.86336 2.57646 7.00099 2.7L8.37049 3.93L12.113 7.56C12.2354 7.67733 12.3328 7.81821 12.3994 7.97417C12.4659 8.13013 12.5002 8.29794 12.5002 8.4675C12.5002 8.63706 12.4659 8.80487 12.3994 8.96083C12.3328 9.11679 12.2354 9.25767 12.113 9.375C11.8613 9.61665 11.5259 9.75159 11.177 9.75159C10.8281 9.75159 10.4927 9.61665 10.241 9.375L7.02199 6.2505C6.88207 6.11487 6.69485 6.03903 6.49999 6.03903C6.30513 6.03903 6.11791 6.11487 5.97799 6.2505L2.75899 9.375C2.52192 9.60452 2.20825 9.73811 1.87849 9.75C1.69666 9.75795 1.51512 9.7288 1.34492 9.66433C1.17472 9.59986 1.01942 9.50142 0.88849 9.375H0.88699Z" fill="white"/>
</svg>
